<svg width="35" height="42" viewBox="0 0 35 42" fill="none" xmlns="http://www.w3.org/2000/svg">
<path d="M18.4151 12.2258C18.167 12.4581 17.8353 12.588 17.4901 12.588C17.1449 12.588 16.8133 12.4581 16.5651 12.2258C14.2927 10.0852 11.2474 7.69405 12.7325 4.22251C13.5355 2.34547 15.463 1.14438 17.4901 1.14438C19.5172 1.14438 21.4447 2.34547 22.2477 4.22251C23.7309 7.68971 20.6931 10.0926 18.4151 12.2258Z" fill="#255CFF" stroke="#255CFF" stroke-width="0.911804"/>
<path d="M19.4894 6.29398C19.4894 7.4 18.5928 8.2966 17.4868 8.2966C16.3807 8.2966 15.4841 7.4 15.4841 6.29398C15.4841 5.18796 16.3807 4.29135 17.4868 4.29135C18.5928 4.29135 19.4894 5.18796 19.4894 6.29398Z" fill="white"/>
<path d="M6.12068 8.42975C9.50118 8.42975 12.2416 11.1702 12.2416 14.5507V27.1634C12.2416 28.6971 12.6294 29.9178 13.4049 30.8256C14.2173 31.702 15.5098 32.1402 17.2824 32.1402C19.0549 32.1402 20.3659 31.702 21.2153 30.8256C22.0646 29.9178 22.4893 28.6971 22.4893 27.1634V14.5507C22.4893 11.1702 25.2297 8.42975 28.6102 8.42975C31.9907 8.42975 34.7312 11.1702 34.7312 14.5507V27.1634C34.7312 30.3247 33.9557 33.0323 32.4047 35.2859C30.8537 37.5083 28.7303 39.1829 26.0345 40.3097C23.3387 41.4366 20.329 42 17.0054 42C13.6818 42 10.7275 41.4366 8.14253 40.3097C5.59445 39.1829 3.6003 37.5083 2.16008 35.2859C0.719865 33.0636 -0.000244141 30.356 -0.000244141 27.1634V14.5507C-0.000244141 11.1702 2.74019 8.42975 6.12068 8.42975Z" fill="#255CFF"/>
</svg>
